<svg width="18" height="20" viewBox="0 0 18 20" fill="none" xmlns="http://www.w3.org/2000/svg">
<path fill-rule="evenodd" clip-rule="evenodd" d="M7.94795 0.0878541C8.32907 -0.0292846 8.73659 -0.0292848 9.11771 0.0878541L12.1035 1.00552C13.6611 1.48426 15.1404 2.18813 16.4944 3.09478C17.5476 3.79997 17.0484 5.44271 15.7809 5.44271H1.28474C0.0172936 5.44271 -0.481904 3.79997 0.571248 3.09478C1.92528 2.18813 3.40457 1.48427 4.96221 1.00552L7.94795 0.0878541ZM8.67703 1.52166C8.58307 1.49278 8.4826 1.49278 8.38863 1.52166L5.40289 2.43933C4.22209 2.80225 3.09075 3.30729 2.03353 3.94272H15.0321C13.9749 3.30729 12.8436 2.80225 11.6628 2.43933L8.67703 1.52166Z" fill="#443F3C"/>
<path d="M0.782837 18.6927C0.782837 18.2785 1.11862 17.9427 1.53284 17.9427H15.5328C15.9471 17.9427 16.2828 18.2785 16.2828 18.6927C16.2828 19.1069 15.9471 19.4427 15.5328 19.4427H1.53284C1.11862 19.4427 0.782837 19.1069 0.782837 18.6927Z" fill="#443F3C"/>
<path d="M2.78284 14.6927C2.78284 15.1069 3.11862 15.4427 3.53284 15.4427C3.94705 15.4427 4.28284 15.1069 4.28284 14.6927L4.28284 8.69272C4.28284 8.2785 3.94705 7.94272 3.53284 7.94272C3.11862 7.94272 2.78284 8.27851 2.78284 8.69272L2.78284 14.6927Z" fill="#443F3C"/>
<path d="M8.53284 15.4427C8.11862 15.4427 7.78284 15.1069 7.78284 14.6927L7.78284 8.69272C7.78284 8.27851 8.11862 7.94272 8.53284 7.94272C8.94705 7.94272 9.28284 8.2785 9.28284 8.69272V14.6927C9.28284 15.1069 8.94705 15.4427 8.53284 15.4427Z" fill="#443F3C"/>
<path d="M12.7828 14.6927C12.7828 15.1069 13.1186 15.4427 13.5328 15.4427C13.9471 15.4427 14.2828 15.1069 14.2828 14.6927V8.69272C14.2828 8.2785 13.9471 7.94272 13.5328 7.94272C13.1186 7.94272 12.7828 8.27851 12.7828 8.69272V14.6927Z" fill="#443F3C"/>
</svg>
