<svg width="19" height="21" viewBox="0 0 19 21" fill="none" xmlns="http://www.w3.org/2000/svg">
<path fill-rule="evenodd" clip-rule="evenodd" d="M3.62548 8.63126L3.30625 5.75817C3.26581 5.39419 3.26581 5.02685 3.30625 4.66288L3.32901 4.45798C3.5705 2.28459 5.2791 0.564932 7.45089 0.309427C7.81572 0.266507 8.18431 0.266507 8.54914 0.309427C10.7209 0.564932 12.4295 2.28459 12.671 4.45798L12.6938 4.66288C12.7342 5.02685 12.7342 5.39419 12.6938 5.75817L12.4128 8.28684C12.393 8.46553 12.256 8.60784 12.0799 8.64413C11.0843 8.84928 10.166 9.26584 9.3738 9.84482C9.29964 9.89901 9.20992 9.92813 9.1181 9.92562C7.55159 9.8828 5.98323 9.92999 4.42079 10.0672L3.28634 10.1668C2.76161 10.2129 2.33692 10.6128 2.25936 11.1338C1.92714 13.3656 1.92714 15.6344 2.25936 17.8662C2.33692 18.3872 2.76161 18.7871 3.28634 18.8332L4.42079 18.9328C5.36685 19.0159 6.31507 19.066 7.26374 19.083C7.40268 19.0855 7.53004 19.1596 7.60511 19.2765C7.82385 19.6173 8.07133 19.9378 8.34413 20.2347C8.46541 20.3667 8.37706 20.5884 8.19781 20.5892C6.89389 20.5953 5.58976 20.5412 4.28957 20.427L3.15513 20.3274C1.93937 20.2207 0.955401 19.2942 0.77571 18.0871C0.421687 15.7088 0.421687 13.2912 0.77571 10.9129C0.955401 9.70579 1.93937 8.77933 3.15513 8.67256L3.62548 8.63126ZM7.62615 1.79915C7.87454 1.76993 8.12549 1.76993 8.37388 1.79915C9.8525 1.97311 11.0158 3.14391 11.1802 4.62363L11.203 4.82853C11.2312 5.08241 11.2312 5.33864 11.203 5.59252L10.879 8.50816C8.96189 8.37773 7.03814 8.37773 5.12103 8.50816L4.79707 5.59252C4.76886 5.33864 4.76886 5.08241 4.79707 4.82852L4.81984 4.62363C4.98425 3.14391 6.14753 1.97311 7.62615 1.79915Z" fill="#241E20"/>
<path d="M14.25 14C14.25 13.5858 13.9142 13.25 13.5 13.25C13.0858 13.25 12.75 13.5858 12.75 14V15.7727C12.75 16.0127 12.8648 16.2381 13.0589 16.3793L14.0589 17.1065C14.3939 17.3502 14.8629 17.2761 15.1066 16.9411C15.3502 16.6061 15.2761 16.1371 14.9411 15.8934L14.25 15.3908V14Z" fill="#241E20"/>
<path fill-rule="evenodd" clip-rule="evenodd" d="M13.5 21C16.5376 21 19 18.5376 19 15.5C19 12.4624 16.5376 10 13.5 10C10.4624 10 8.00002 12.4624 8.00002 15.5C8.00002 18.5376 10.4624 21 13.5 21ZM13.5 19.5C15.7092 19.5 17.5 17.7091 17.5 15.5C17.5 13.2909 15.7092 11.5 13.5 11.5C11.2909 11.5 9.50002 13.2909 9.50002 15.5C9.50002 17.7091 11.2909 19.5 13.5 19.5Z" fill="#241E20"/>
</svg>
