<svg width="21" height="15" viewBox="0 0 21 15" fill="none" xmlns="http://www.w3.org/2000/svg">
<path fill-rule="evenodd" clip-rule="evenodd" d="M17.5027 0.162489L10.319 0L3.13524 0.162489C1.80408 0.192599 0.67698 1.15322 0.436292 2.46278C-0.145431 5.62788 -0.145431 8.8725 0.436292 12.0376C0.676981 13.3472 1.80408 14.3078 3.13524 14.3379L10.319 14.5004L17.5027 14.3379C18.8338 14.3078 19.9609 13.3472 20.2016 12.0376C20.7834 8.8725 20.7834 5.62788 20.2016 2.46278C19.9609 1.15322 18.8338 0.192598 17.5027 0.162489ZM3.16916 1.66211L10.319 1.50038L17.4688 1.66211C18.089 1.67613 18.6142 2.12374 18.7263 2.73393C18.8796 3.56792 18.9901 4.40776 19.0577 5.25018H1.58018C1.64783 4.40776 1.7583 3.56792 1.91158 2.73393C2.02373 2.12374 2.5489 1.67613 3.16916 1.66211ZM1.5 7.25018C1.5 8.76186 1.63719 10.2735 1.91158 11.7665C2.02373 12.3766 2.5489 12.8242 3.16916 12.8383L10.319 13L17.4688 12.8383C18.089 12.8242 18.6142 12.3766 18.7263 11.7665C19.0007 10.2735 19.1379 8.76186 19.1379 7.25018H1.5Z" fill="#443F3C"/>
</svg>
